<svg width="236" height="175" viewBox="0 0 236 175" fill="none" xmlns="http://www.w3.org/2000/svg">
<path d="M134.444 81.1234C134.444 90.7711 121.023 103.135 106.495 103.135C91.9676 103.135 80.1776 90.7711 80.1776 81.1234C80.1776 71.4758 91.9606 63.6484 106.495 63.6484C121.03 63.6484 134.444 71.4688 134.444 81.1234Z" fill="#4196FD"/>
<path d="M118.509 74.8133C117.991 75.4784 117.473 76.1995 117.368 77.0327C117.242 78.0058 117.69 78.951 118.124 79.8262C119.994 83.6278 121.996 87.5835 125.42 90.0759C130.545 93.8006 138.176 93.1634 143.042 89.1097C143.518 88.7177 143.98 88.2766 144.204 87.7025C144.519 86.9184 144.33 86.0362 144.316 85.1891C144.281 82.8437 145.597 80.6663 145.821 78.3349C146.388 72.3979 140.612 66.1108 135.109 65.1796C128.654 64.0875 122.283 70.0035 118.502 74.8063L118.509 74.8133Z" fill="#4196FD"/>
<path d="M134.024 62.3038C133.884 61.7087 133.709 61.0996 133.282 60.6656C132.785 60.1615 132.057 59.9864 131.363 59.8324C128.374 59.1813 125.244 58.5302 122.297 59.3493C117.893 60.5745 114.827 65.1673 114.925 69.7391C114.932 70.1802 114.974 70.6423 115.198 71.0273C115.499 71.5594 116.08 71.8465 116.563 72.2175C117.907 73.2537 118.544 74.969 119.762 76.1452C122.864 79.1347 129.011 78.6937 132.008 76.0052C135.529 72.8477 135.046 66.5956 134.031 62.2968L134.024 62.3038Z" fill="#4196FD"/>
<path d="M100.614 56.8477C99.9002 57.3098 99.172 57.8349 98.794 58.598C98.3529 59.4871 98.4719 60.5373 98.5979 61.5175C99.137 65.7672 99.7461 70.213 102.204 73.7206C105.879 78.9715 113.384 80.8688 119.371 78.6004C119.952 78.3764 120.54 78.1103 120.946 77.6413C121.499 76.9901 121.618 76.087 121.877 75.2819C122.612 73.0275 124.586 71.3822 125.574 69.2188C128.073 63.7299 124.614 55.8115 119.665 53.1091C113.847 49.9375 105.816 53.5011 100.614 56.8477Z" fill="#4196FD"/>
<path d="M97.4429 50.7994C96.6167 50.6524 95.7416 50.5404 94.9574 50.8414C94.0473 51.1915 93.4242 52.0246 92.8571 52.8157C90.3927 56.2463 87.8582 59.859 87.2841 64.0387C86.423 70.2907 90.5607 76.6898 96.4067 79.0632C96.9738 79.2943 97.5829 79.4973 98.192 79.4273C99.0251 79.3293 99.7112 78.7552 100.446 78.3491C102.491 77.2149 105.018 77.3479 107.175 76.4518C112.656 74.1624 115.464 66.139 113.7 60.8671C111.627 54.6781 103.443 51.8706 97.4429 50.7994Z" fill="#4196FD"/>
<path d="M99.3889 58.3943C99.0948 57.5961 98.7448 56.77 98.0796 56.2379C97.3095 55.6148 96.2593 55.4958 95.2722 55.4048C91.0014 54.9987 86.5347 54.6276 82.572 56.2589C76.649 58.7023 73.1484 65.6055 74.0585 71.9486C74.1495 72.5647 74.2826 73.2018 74.6536 73.6989C75.1647 74.385 76.0189 74.6931 76.754 75.1271C78.7983 76.3384 79.9675 78.6278 81.8649 80.056C86.6817 83.6966 95.1531 82.0513 98.8778 77.8016C103.247 72.8168 101.524 64.1983 99.3889 58.3943Z" fill="#4196FD"/>
<path d="M93.578 63.9363C93.0459 62.9631 92.4438 61.976 91.4917 61.4159C90.3855 60.7648 89.0132 60.8138 87.732 60.8838C82.1801 61.1778 76.3761 61.5419 71.6083 64.3914C64.474 68.6481 61.3025 78.1767 63.6759 86.1371C63.9069 86.9142 64.201 87.6984 64.7681 88.2655C65.5522 89.0496 66.7144 89.2806 67.7366 89.7007C70.5861 90.8699 72.5254 93.5794 75.2279 95.0566C82.096 98.8093 92.6539 95.0846 96.6235 88.9306C101.279 81.7054 97.4287 70.9795 93.585 63.9363H93.578Z" fill="#4196FD"/>
<path d="M69.641 84.0983C68.9759 84.7634 68.3107 85.5056 68.0867 86.4227C67.8207 87.4869 68.1987 88.5931 68.5628 89.6293C70.1521 94.096 71.8604 98.7588 75.347 101.972C80.5628 106.775 89.1253 107.055 95.0623 103.184C95.6364 102.806 96.2105 102.378 96.5396 101.769C96.9877 100.936 96.8966 99.935 96.9877 98.9969C97.2467 96.3784 98.997 94.138 99.5501 91.5686C100.95 85.0435 95.3424 77.3072 89.3494 75.5569C82.3131 73.5055 74.4718 79.2535 69.641 84.1123V84.0983Z" fill="#4196FD"/>
<path d="M83.4615 87.4727C82.6703 87.7948 81.8512 88.1728 81.3331 88.859C80.731 89.6571 80.647 90.7143 80.584 91.7084C80.3179 96.0072 80.0799 100.509 81.8442 104.444C84.4836 110.318 91.5408 113.608 97.8839 112.495C98.5 112.39 99.1301 112.229 99.6202 111.844C100.292 111.312 100.572 110.437 100.985 109.688C102.141 107.594 104.395 106.348 105.774 104.395C109.275 99.4378 107.35 90.9733 102.967 87.3747C97.8209 83.146 89.2164 85.1553 83.4475 87.4867L83.4615 87.4727Z" fill="#4196FD"/>
<path d="M89.6503 102.133C89.2512 102.966 88.8801 103.869 88.9641 104.786C89.0692 105.857 89.7693 106.76 90.4484 107.601C93.3749 111.22 96.4694 114.98 100.747 116.821C107.139 119.573 115.163 117.045 119.398 111.521C119.811 110.982 120.203 110.401 120.309 109.729C120.456 108.812 120.042 107.916 119.825 107.012C119.216 104.506 120.105 101.86 119.776 99.3042C118.95 92.8 111.235 87.4651 105.116 87.8012C97.9327 88.1933 92.5418 96.0696 89.6503 102.14V102.133Z" fill="#4196FD"/>
<path d="M121.996 88.6058C121.555 88.1648 121.065 87.7307 120.463 87.5837C119.755 87.4086 119.027 87.6607 118.348 87.9057C115.401 88.9629 112.32 90.0971 110.206 92.4145C107.041 95.8661 106.873 101.53 109.443 105.444C109.695 105.822 109.975 106.2 110.381 106.417C110.934 106.711 111.592 106.648 112.215 106.711C113.944 106.879 115.429 108.027 117.13 108.391C121.45 109.308 126.547 105.584 127.695 101.621C129.039 96.9653 125.223 91.7984 122.01 88.6128L121.996 88.6058Z" fill="#4196FD"/>
<path d="M115.415 88.7611C114.96 89.3492 114.519 89.9863 114.428 90.7214C114.323 91.5756 114.722 92.4017 115.107 93.1719C116.773 96.4974 118.558 99.956 121.583 102.119C126.106 105.354 132.799 104.745 137.049 101.153C137.462 100.803 137.868 100.411 138.064 99.907C138.33 99.2139 138.162 98.4438 138.148 97.7016C138.099 95.6433 139.24 93.7249 139.422 91.6736C139.884 86.4577 134.766 80.9758 129.928 80.1916C124.25 79.2745 118.705 84.5114 115.415 88.7611Z" fill="#4196FD"/>
<path d="M125.539 71.5043C124.839 71.7564 124.125 72.0644 123.655 72.6455C123.109 73.3176 123.011 74.2348 122.927 75.0889C122.57 78.8066 122.234 82.6992 123.648 86.1578C125.77 91.3247 131.784 94.3842 137.315 93.6001C137.854 93.5231 138.407 93.4111 138.841 93.082C139.436 92.6409 139.709 91.8918 140.087 91.2547C141.144 89.4764 143.14 88.4612 144.393 86.8089C147.572 82.6152 146.15 75.229 142.454 71.9734C138.12 68.1577 130.601 69.649 125.532 71.4973L125.539 71.5043Z" fill="#4196FD"/>
<path d="M2.23346 134.594C41.5872 182.657 116.045 182.79 167.504 156.312C201.614 138.76 244.874 94.148 234.386 51.3147C231.572 39.8117 213.81 44.6845 216.631 56.2085C224.998 90.3814 184.083 127.138 158.206 140.412C113.434 163.383 49.3375 163.208 15.2487 121.572C7.7364 112.4 -5.22282 125.492 2.23346 134.587V134.594Z" fill="#4196FD"/>
<path d="M55.7578 14.2272C55.7578 6.69496 49.6517 0.588867 42.1194 0.588867C34.5872 0.588867 28.4811 6.69496 28.4811 14.2272V31.4292C28.4811 38.9614 34.5872 45.0675 42.1194 45.0675C49.6517 45.0675 55.7578 38.9614 55.7578 31.4292V14.2272Z" fill="#4196FD"/>
<path d="M165.299 14.2272C165.299 6.69496 159.193 0.588867 151.66 0.588867C144.128 0.588867 138.022 6.69496 138.022 14.2272V31.4292C138.022 38.9614 144.128 45.0675 151.66 45.0675C159.193 45.0675 165.299 38.9614 165.299 31.4292V14.2272Z" fill="#4196FD"/>
</svg>
