<svg width="20" height="20" viewBox="0 0 20 20" fill="none" xmlns="http://www.w3.org/2000/svg">
<path d="M14.1665 2.78357C15.4234 3.50928 16.469 4.55067 17.1997 5.80465C17.9304 7.05863 18.321 8.48171 18.3327 9.93302C18.3444 11.3843 17.9769 12.8135 17.2665 14.0792C16.5561 15.3448 15.5275 16.4029 14.2825 17.1488C13.0375 17.8948 11.6193 18.3026 10.1683 18.332C8.7172 18.3613 7.28363 18.0112 6.00947 17.3163C4.7353 16.6213 3.66473 15.6057 2.90373 14.3698C2.14272 13.134 1.71768 11.7208 1.67067 10.2702L1.6665 10.0002L1.67067 9.73024C1.71734 8.29106 2.13613 6.88854 2.8862 5.6594C3.63628 4.43026 4.69205 3.41645 5.95058 2.7168C7.20911 2.01716 8.62746 1.65557 10.0673 1.66727C11.5072 1.67897 12.9195 2.06357 14.1665 2.78357ZM8.759 7.6169C8.5844 7.51297 8.37785 7.47641 8.17818 7.51409C7.97851 7.55178 7.79949 7.66112 7.67479 7.82155C7.5501 7.98198 7.48831 8.18245 7.50105 8.38524C7.5138 8.58803 7.6002 8.77918 7.744 8.92274L8.82067 10.0002L7.744 11.0777L7.67484 11.1561C7.54533 11.3236 7.48443 11.5341 7.50451 11.7448C7.52458 11.9556 7.62413 12.1508 7.78294 12.2909C7.94174 12.4309 8.14789 12.5052 8.35952 12.4988C8.57114 12.4923 8.77237 12.4055 8.92234 12.2561L9.99984 11.1794L11.0773 12.2561L11.1557 12.3252C11.3232 12.4547 11.5337 12.5156 11.7444 12.4956C11.9552 12.4755 12.1504 12.3759 12.2905 12.2171C12.4305 12.0583 12.5048 11.8522 12.4984 11.6406C12.4919 11.4289 12.4051 11.2277 12.2557 11.0777L11.179 10.0002L12.2557 8.92274L12.3248 8.8444C12.4543 8.67691 12.5152 8.4664 12.4952 8.25563C12.4751 8.04486 12.3755 7.84964 12.2167 7.70961C12.0579 7.56958 11.8518 7.49525 11.6402 7.50171C11.4285 7.50818 11.2273 7.59495 11.0773 7.7444L9.99984 8.82107L8.92234 7.7444L8.844 7.67524L8.759 7.6169Z" fill="#8B95A1"/>
</svg>
