<svg width="393" height="420" viewBox="0 0 393 420" fill="none" xmlns="http://www.w3.org/2000/svg">
<g clip-path="url(#clip0_4695_7554)">
<rect x="20" y="10" width="353" height="497" fill="#4196FD"/>
<g filter="url(#filter0_b_4695_7554)">
<path d="M288.903 14.3362C289.9 8.6742 295.378 4.97982 300.895 6.24851L303.632 6.87772C307.179 7.69347 310.899 6.46006 313.309 3.66885L314.985 1.72815C318.622 -2.48347 324.927 -2.90554 329.012 0.789227L332.291 3.75512C334.824 6.04621 338.355 6.84159 341.633 5.85922L345.317 4.75525C350.283 3.26701 355.509 5.89628 357.306 10.7873L359.277 16.1488C360.388 19.1739 362.88 21.4547 365.966 22.2708L371.139 23.6391C375.97 24.9168 379.063 29.6595 378.342 34.6815L377.57 40.0597C377.109 43.2671 378.206 46.4887 380.515 48.7068L384.606 52.6379C388.338 56.224 388.688 62.142 385.408 66.2148L382.975 69.236C380.81 71.9244 380.157 75.5419 381.248 78.8057L382.66 83.0307C384.419 88.2941 381.584 94.0368 376.353 95.8052L373.943 96.6201C370.477 97.7922 367.913 100.797 367.272 104.438L366.778 107.246C365.781 112.908 360.303 116.602 354.786 115.333L352.049 114.704C348.501 113.888 344.782 115.122 342.371 117.913L340.696 119.854C337.059 124.065 330.753 124.487 326.669 120.793L323.39 117.827C320.857 115.536 317.325 114.74 314.047 115.723L310.364 116.827C305.398 118.315 300.172 115.686 298.375 110.795L296.404 105.433C295.292 102.408 292.8 100.127 289.715 99.3111L284.542 97.9427C279.711 96.665 276.617 91.9223 277.339 86.9004L278.111 81.5221C278.572 78.3147 277.474 75.0931 275.166 72.875L271.075 68.9439C267.342 65.3578 266.993 59.4398 270.273 55.367L272.706 52.3458C274.871 49.6574 275.523 46.0399 274.433 42.7762L273.021 38.5511C271.262 33.2877 274.097 27.5451 279.327 25.7766L281.738 24.9617C285.204 23.7897 287.768 20.7848 288.409 17.1443L288.903 14.3362Z" fill="#1C7FF6"/>
<rect width="54.6039" height="59.5637" transform="matrix(0.812593 -0.548033 0.533919 0.818494 292.934 56.2891)" fill="#1C7FF6"/>
<path d="M334.29 57.3288C335.659 59.4277 334.512 64.0773 331.361 66.202C328.211 68.3267 323.903 67.3562 322.534 65.2574C321.165 63.1585 322.604 59.7309 325.754 57.6062C328.905 55.4815 332.916 55.2219 334.29 57.3288Z" fill="white"/>
<path d="M329.946 58.2731C329.929 58.4926 329.922 58.7281 330.013 58.9205C330.125 59.1449 330.356 59.2887 330.569 59.4218C331.514 59.9726 332.509 60.5473 333.601 60.5838C335.238 60.6452 336.8 59.3956 337.286 57.799C337.332 57.6409 337.365 57.4803 337.342 57.3225C337.296 57.1112 337.131 56.9458 337.011 56.7616C336.669 56.2542 336.647 55.588 336.366 55.051C335.644 53.6805 333.507 53.1498 332.18 53.7563C330.627 54.4573 330.089 56.6776 329.946 58.2731Z" fill="white"/>
<path d="M331.532 53.2932C331.417 53.1866 331.288 53.0773 331.138 53.0403C330.961 52.9981 330.78 53.0736 330.603 53.1358C329.863 53.4273 329.096 53.7483 328.573 54.3548C327.788 55.2647 327.779 56.7125 328.451 57.6897C328.514 57.7858 328.59 57.8846 328.69 57.9324C328.827 58.0016 328.996 57.9796 329.152 57.9898C329.586 58.0204 329.975 58.3001 330.405 58.379C331.499 58.576 332.768 57.5816 333.04 56.5557C333.357 55.3504 332.357 54.0639 331.535 53.2798L331.532 53.2932Z" fill="white"/>
<path d="M323.526 56.9861C323.442 57.1924 323.356 57.4122 323.381 57.6262C323.41 57.883 323.586 58.0992 323.754 58.286C324.474 59.1265 325.234 60.0098 326.265 60.4104C327.81 61.0181 329.703 60.3294 330.671 58.9613C330.768 58.8272 330.859 58.685 330.878 58.5217C330.904 58.2969 330.803 58.0884 330.743 57.8746C330.584 57.2783 330.78 56.6274 330.679 56.0149C330.442 54.4555 328.569 53.2387 327.111 53.3801C325.401 53.541 324.17 55.4907 323.521 56.9781L323.526 56.9861Z" fill="white"/>
<path d="M321.968 56.1336C321.772 56.2199 321.565 56.325 321.439 56.5021C321.287 56.7086 321.272 56.9843 321.267 57.2412C321.219 58.3467 321.18 59.5029 321.656 60.4968C322.361 61.9824 324.164 62.7739 325.766 62.4313C325.917 62.3987 326.084 62.3553 326.202 62.2532C326.369 62.1055 326.434 61.8885 326.537 61.6928C326.821 61.1432 327.384 60.8095 327.724 60.2919C328.589 58.9937 328.056 56.8385 326.926 55.9512C325.601 54.9065 323.433 55.4918 321.982 56.1363L321.968 56.1336Z" fill="white"/>
<path d="M323.474 57.5064C323.295 57.3732 323.1 57.2508 322.878 57.2274C322.622 57.2042 322.383 57.3308 322.152 57.452C321.169 57.9878 320.152 58.5586 319.521 59.492C318.581 60.8867 318.806 62.9038 319.904 64.1472C320.009 64.2726 320.13 64.3873 320.283 64.4456C320.494 64.5225 320.719 64.4629 320.941 64.4515C321.552 64.42 322.131 64.7445 322.75 64.7773C324.312 64.8657 325.911 63.2681 326.116 61.8035C326.36 60.0819 324.762 58.4602 323.474 57.5064Z" fill="white"/>
<path d="M323.005 59.5521C322.757 59.4191 322.481 59.2942 322.195 59.3139C321.861 59.3311 321.577 59.5461 321.303 59.7424C320.14 60.6187 318.94 61.5433 318.306 62.8594C317.365 64.8322 318.027 67.3616 319.68 68.7504C319.837 68.8864 320.011 69.0115 320.222 69.0537C320.499 69.1089 320.786 68.9849 321.072 68.9304C321.853 68.7726 322.657 69.0723 323.449 69.0001C325.465 68.8167 327.221 66.4558 327.215 64.5451C327.196 62.2972 324.84 60.5174 323.005 59.5521Z" fill="white"/>
<path d="M320.676 67.4453C320.627 67.6863 320.588 67.9433 320.671 68.1759C320.766 68.4459 321.003 68.6324 321.229 68.8029C322.204 69.541 323.243 70.3055 324.447 70.4969C326.259 70.7745 328.151 69.5907 328.887 67.8835C328.962 67.7173 329.019 67.5405 329.007 67.3639C328.983 67.1151 328.825 66.9096 328.711 66.6986C328.396 66.0921 328.46 65.3453 328.213 64.7038C327.592 63.0815 325.282 62.2168 323.731 62.709C321.915 63.2878 321.032 65.6832 320.676 67.4453Z" fill="white"/>
<path d="M324.151 66.15C324.023 66.3405 323.9 66.5389 323.887 66.7664C323.875 67.0287 323.997 67.2692 324.13 67.4908C324.686 68.4658 325.267 69.4808 326.209 70.0798C327.62 70.9742 329.608 70.6598 330.831 69.4889C330.951 69.3735 331.066 69.25 331.112 69.0919C331.177 68.8749 331.121 68.6477 331.099 68.4203C331.048 67.7969 331.365 67.191 331.383 66.5674C331.435 64.9749 329.824 63.4201 328.363 63.2751C326.645 63.1069 325.074 64.8008 324.151 66.15Z" fill="white"/>
<path d="M327.57 68.435C327.603 68.6785 327.649 68.9245 327.795 69.114C327.971 69.3302 328.253 69.4283 328.511 69.5077C329.653 69.8678 330.864 70.2278 332.051 70.0043C333.831 69.6692 335.201 67.9492 335.334 66.129C335.343 65.9497 335.353 65.7704 335.277 65.602C335.179 65.3802 334.965 65.2471 334.787 65.0791C334.296 64.6258 334.119 63.9146 333.687 63.4102C332.586 62.1106 330.159 62.0866 328.882 63.0516C327.384 64.1886 327.338 66.6883 327.565 68.427L327.57 68.435Z" fill="white"/>
<path d="M332.655 60.7727C332.497 60.7411 332.331 60.7149 332.174 60.7743C331.996 60.8364 331.873 61.0001 331.759 61.1583C331.272 61.821 330.764 62.5211 330.633 63.3244C330.439 64.54 331.204 65.8006 332.316 66.2733C332.424 66.3157 332.545 66.3608 332.651 66.3471C332.813 66.3305 332.946 66.2176 333.092 66.1422C333.493 65.9295 333.974 65.9627 334.393 65.7953C335.457 65.3663 336.037 63.8095 335.72 62.7776C335.357 61.5691 333.791 60.999 332.647 60.778L332.655 60.7727Z" fill="white"/>
<path d="M331.257 61.7623C331.245 61.955 331.238 62.1558 331.318 62.3321C331.415 62.5325 331.623 62.6576 331.812 62.772C332.641 63.251 333.523 63.7404 334.486 63.772C335.926 63.8154 337.289 62.7002 337.699 61.3046C337.74 61.1733 337.77 61.026 337.745 60.8816C337.702 60.6917 337.56 60.545 337.448 60.3902C337.147 59.9469 337.122 59.3636 336.87 58.8881C336.223 57.686 334.344 57.2347 333.182 57.7765C331.823 58.4045 331.36 60.3543 331.257 61.7623Z" fill="white"/>
<path d="M331.005 56.5331C330.89 56.6914 330.781 56.8577 330.761 57.0558C330.735 57.2807 330.842 57.4971 330.946 57.6921C331.394 58.555 331.876 59.4526 332.679 59.9958C333.873 60.8054 335.606 60.5935 336.693 59.6184C336.802 59.5217 336.906 59.417 336.947 59.2857C337.012 59.1036 336.971 58.9003 336.957 58.7023C336.937 58.1618 337.222 57.647 337.258 57.1037C337.348 55.7278 335.994 54.322 334.729 54.1603C333.244 53.9619 331.832 55.3876 331 56.5251L331.005 56.5331Z" fill="white"/>
<path d="M306.813 85.7995C320.745 93.7933 338.81 86.7615 348.863 75.4156C355.525 67.8913 361.942 52.8988 355.486 43.4411C353.758 40.9023 349.89 43.7771 351.63 46.3214C356.778 53.8695 350.216 66.7236 345.155 72.4258C336.398 82.2851 320.839 88.3257 308.777 81.3926C306.118 79.8675 304.17 84.2889 306.807 85.812L306.813 85.7995Z" fill="white"/>
<path d="M304.671 52.0777L304.663 52.083C303.033 53.1822 302.577 55.4003 303.645 57.0373L306.091 60.7864C307.159 62.4234 309.346 62.8595 310.975 61.7603L310.983 61.7549C312.613 60.6558 313.069 58.4377 312.001 56.8006L309.555 53.0515C308.487 51.4145 306.3 50.9785 304.671 52.0777Z" fill="white"/>
<path d="M328.391 36.0806L328.383 36.086C326.753 37.1851 326.297 39.4032 327.365 41.0402L329.811 44.7894C330.879 46.4264 333.065 46.8624 334.695 45.7632L334.703 45.7578C336.333 44.6587 336.789 42.4406 335.721 40.8036L333.275 37.0544C332.207 35.4174 330.02 34.9814 328.391 36.0806Z" fill="white"/>
</g>
<g filter="url(#filter1_b_4695_7554)">
<path d="M140.986 45.2427C146.129 43.2847 151.929 45.9326 153.99 51.1793L155.261 54.4156C156.582 57.7797 159.53 60.2192 163.026 60.8408L166.321 61.4266C171.732 62.3886 175.464 67.5646 174.722 73.0764L174.206 76.9025C173.734 80.4058 175.078 83.9378 177.759 86.2426L180.579 88.6667C184.732 92.2365 185.437 98.458 182.179 102.778L179.686 106.083C177.616 108.827 177.076 112.476 178.251 115.769L179.642 119.668C181.478 124.813 179.063 130.457 174.143 132.518L170.415 134.08C167.266 135.399 165.017 138.268 164.446 141.696L163.758 145.825C162.858 151.222 157.929 154.872 152.578 154.103L148.944 153.58C145.489 153.084 142.055 154.435 139.865 157.154L137.473 160.123C134.026 164.4 127.808 165.034 123.477 161.548L120.84 159.426C118.041 157.174 114.31 156.564 111.012 157.819L107.839 159.027C102.696 160.985 96.8958 158.337 94.8355 153.091L93.5646 149.854C92.2436 146.49 89.2952 144.051 85.7989 143.429L82.5039 142.843C77.0933 141.881 73.361 136.705 74.1036 131.194L74.6192 127.367C75.0912 123.864 73.7476 120.332 71.0663 118.027L68.2461 115.603C64.093 112.034 63.3878 105.812 66.6466 101.492L69.1396 98.1868C71.2092 95.4431 71.7498 91.7942 70.5745 88.5006L69.1832 84.6018C67.3471 79.4565 69.7622 73.8127 74.682 71.7517L78.41 70.1899C81.5592 68.8706 83.8079 66.0015 84.3792 62.5738L85.0673 58.4448C85.9668 53.0476 90.896 49.3982 96.2475 50.1675L99.8815 50.6898C103.337 51.1865 106.77 49.8351 108.96 47.1164L111.353 44.1471C114.799 39.8697 121.017 39.2363 125.348 42.7215L127.986 44.8439C130.784 47.0961 134.515 47.706 137.813 46.4505L140.986 45.2427Z" fill="#90C9F6" fill-opacity="0.4"/>
<path d="M131.775 105.77C130.766 108.127 126.223 109.667 122.696 108.057C119.169 106.447 117.606 102.119 118.615 99.7615C119.623 97.4039 123.301 96.7916 126.828 98.4017C130.354 100.012 132.788 103.403 131.775 105.77Z" fill="white"/>
<path d="M128.582 102.461C128.388 102.566 128.186 102.689 128.074 102.874C127.948 103.096 127.955 103.379 127.96 103.64C128.019 104.774 128.085 105.966 128.658 106.948C129.51 108.424 131.424 109.114 133.035 108.667C133.193 108.621 133.346 108.562 133.467 108.455C133.619 108.299 133.667 108.063 133.755 107.856C133.993 107.276 134.541 106.892 134.838 106.349C135.591 104.962 134.857 102.787 133.614 101.951C132.167 100.967 130.002 101.711 128.582 102.461Z" fill="white"/>
<path d="M133.646 101.127C133.672 100.966 133.693 100.793 133.641 100.64C133.579 100.461 133.415 100.344 133.265 100.221C132.611 99.7291 131.918 99.2297 131.119 99.1016C129.92 98.9094 128.698 99.6958 128.247 100.824C128.201 100.932 128.16 101.053 128.175 101.167C128.192 101.326 128.304 101.463 128.382 101.606C128.596 102.005 128.575 102.501 128.747 102.924C129.185 103.995 130.722 104.567 131.735 104.245C132.924 103.862 133.453 102.276 133.659 101.122L133.646 101.127Z" fill="white"/>
<path d="M126.118 96.0982C125.899 96.1377 125.666 96.1822 125.5 96.3214C125.3 96.4884 125.216 96.7616 125.151 97.0119C124.842 98.1078 124.519 99.2618 124.752 100.39C125.094 102.084 126.719 103.375 128.404 103.477C128.57 103.488 128.74 103.49 128.888 103.418C129.091 103.317 129.211 103.114 129.358 102.944C129.771 102.477 130.427 102.292 130.886 101.867C132.067 100.804 132.055 98.4859 131.131 97.2787C130.052 95.8609 127.732 95.8451 126.122 96.0892L126.118 96.0982Z" fill="white"/>
<path d="M125.976 94.2583C125.795 94.1326 125.592 94.0078 125.374 93.9942C125.116 93.9732 124.875 94.1109 124.657 94.2477C123.7 94.8115 122.707 95.412 122.134 96.3767C121.274 97.8126 121.604 99.8348 122.777 101.059C122.888 101.174 123.017 101.297 123.167 101.344C123.384 101.411 123.603 101.35 123.824 101.332C124.443 101.281 125.035 101.595 125.658 101.61C127.227 101.66 128.745 100.008 128.867 98.5254C129.014 96.7854 127.324 95.1967 125.981 94.2713L125.976 94.2583Z" fill="white"/>
<path d="M125.652 96.3375C125.665 96.107 125.661 95.8682 125.558 95.6599C125.436 95.4213 125.197 95.2802 124.968 95.1431C123.975 94.5713 122.933 93.9882 121.799 93.9439C120.107 93.8815 118.535 95.1859 118.096 96.8355C118.049 96.9966 118.019 97.1659 118.054 97.3326C118.106 97.5607 118.281 97.7264 118.413 97.9159C118.777 98.437 118.824 99.1254 119.138 99.6882C119.927 101.113 122.153 101.646 123.498 101.023C125.08 100.293 125.562 97.9957 125.652 96.3375Z" fill="white"/>
<path d="M123.673 97.047C123.648 96.756 123.6 96.4437 123.426 96.2028C123.227 95.9185 122.889 95.7857 122.573 95.6521C121.194 95.1085 119.754 94.5586 118.297 94.7216C116.118 94.9746 114.356 96.9456 114.101 99.1631C114.074 99.3766 114.065 99.5981 114.146 99.8073C114.252 100.082 114.515 100.266 114.719 100.488C115.283 101.09 115.475 101.963 115.973 102.621C117.241 104.297 120.196 104.549 121.8 103.495C123.679 102.245 123.875 99.1936 123.673 97.047Z" fill="white"/>
<path d="M115.749 99.3248C115.519 99.4134 115.281 99.52 115.132 99.7205C114.957 99.9529 114.931 100.264 114.913 100.556C114.831 101.82 114.761 103.155 115.266 104.321C116.033 106.069 118.074 107.087 119.915 106.798C120.097 106.774 120.277 106.727 120.419 106.62C120.615 106.461 120.701 106.21 120.815 105.994C121.151 105.383 121.814 105.03 122.218 104.461C123.238 103.023 122.69 100.514 121.419 99.418C119.93 98.1355 117.427 98.671 115.749 99.3248Z" fill="white"/>
<path d="M118.758 101.676C118.527 101.667 118.292 101.667 118.094 101.781C117.867 101.914 117.732 102.154 117.619 102.393C117.106 103.417 116.574 104.486 116.59 105.644C116.617 107.378 117.98 108.957 119.64 109.392C119.803 109.435 119.97 109.468 120.129 109.422C120.347 109.36 120.507 109.186 120.686 109.042C121.183 108.655 121.867 108.602 122.402 108.276C123.77 107.448 124.187 105.176 123.502 103.809C122.695 102.204 120.403 101.749 118.758 101.676Z" fill="white"/>
<path d="M118.724 105.942C118.537 106.104 118.356 106.279 118.277 106.512C118.192 106.786 118.266 107.088 118.342 107.359C118.67 108.563 119.036 109.827 119.879 110.75C121.144 112.134 123.347 112.398 124.951 111.517C125.107 111.427 125.263 111.337 125.363 111.178C125.495 110.969 125.489 110.708 125.532 110.459C125.642 109.778 126.143 109.232 126.328 108.574C126.813 106.892 125.493 104.74 123.976 104.145C122.192 103.449 120.065 104.779 118.728 105.933L118.724 105.942Z" fill="white"/>
<path d="M127.977 106.219C127.916 106.062 127.846 105.901 127.71 105.796C127.56 105.673 127.354 105.655 127.157 105.64C126.332 105.575 125.462 105.512 124.714 105.837C123.585 106.333 122.947 107.698 123.164 108.937C123.188 109.056 123.217 109.187 123.287 109.273C123.39 109.406 123.559 109.461 123.703 109.549C124.103 109.785 124.341 110.227 124.713 110.505C125.661 111.207 127.291 110.864 127.984 110.019C128.8 109.036 128.414 107.343 127.968 106.215L127.977 106.219Z" fill="white"/>
<path d="M126.372 105.529C126.203 105.624 126.031 105.728 125.927 105.896C125.812 106.09 125.821 106.342 125.83 106.572C125.885 107.565 125.961 108.611 126.465 109.476C127.225 110.769 128.915 111.358 130.316 110.954C130.448 110.918 130.589 110.863 130.697 110.762C130.832 110.619 130.877 110.414 130.945 110.23C131.152 109.722 131.629 109.381 131.889 108.897C132.543 107.668 131.885 105.765 130.787 105.038C129.508 104.185 127.613 104.848 126.372 105.529Z" fill="white"/>
<path d="M130.63 102.439C130.434 102.425 130.233 102.42 130.056 102.511C129.852 102.611 129.729 102.824 129.623 103.023C129.145 103.891 128.656 104.808 128.643 105.813C128.621 107.309 129.757 108.72 131.177 109.143C131.319 109.186 131.464 109.22 131.597 109.184C131.786 109.141 131.935 108.994 132.093 108.873C132.537 108.559 133.127 108.527 133.604 108.261C134.811 107.585 135.245 105.622 134.682 104.418C134.029 103.002 132.05 102.539 130.634 102.43L130.63 102.439Z" fill="white"/>
<path d="M92.6568 97.179C93.6297 113.839 109.521 125.896 124.615 128.53C134.622 130.272 150.774 127.701 155.162 116.825C156.342 113.911 151.788 112.08 150.61 115.009C147.105 123.684 132.672 124.954 125.081 123.623C111.953 121.316 98.2792 110.922 97.4475 96.4921C97.2617 93.3132 92.4674 94.0219 92.6432 97.181L92.6568 97.179Z" fill="white"/>
<path d="M119.832 76.7935L119.823 76.7894C117.999 75.9565 115.882 76.7718 115.095 78.6106L113.293 82.8217C112.506 84.6605 113.347 86.8263 115.172 87.6592L115.181 87.6633C117.005 88.4962 119.122 87.6809 119.909 85.8421L121.711 81.631C122.498 79.7922 121.657 77.6264 119.832 76.7935Z" fill="white"/>
<path d="M146.387 88.9165L146.378 88.9124C144.554 88.0795 142.437 88.8949 141.65 90.7336L139.848 94.9448C139.061 96.7835 139.902 98.9493 141.727 99.7823L141.736 99.7864C143.56 100.619 145.677 99.8039 146.464 97.9652L148.266 93.754C149.053 91.9153 148.211 89.7495 146.387 88.9165Z" fill="white"/>
</g>
<g filter="url(#filter2_b_4695_7554)">
<path d="M59.1268 237.236C62.4793 233.178 68.4661 232.589 72.5008 235.919L74.9143 237.911C77.5024 240.047 81.0342 240.647 84.1997 239.488L87.0616 238.439C91.941 236.652 97.3271 239.104 99.1624 243.949L100.467 247.393C101.629 250.461 104.296 252.701 107.518 253.316L110.944 253.97C115.917 254.92 119.246 259.616 118.508 264.641L117.906 268.736C117.439 271.914 118.604 275.105 121.003 277.219L124.02 279.878C127.769 283.183 128.293 288.851 125.215 292.828L122.74 296.028C120.771 298.573 120.211 301.933 121.251 304.963L122.591 308.866C124.236 313.656 121.826 318.918 117.116 320.822L113.872 322.133C110.821 323.366 108.612 326.086 108.032 329.326L107.382 332.963C106.466 338.078 101.626 341.538 96.5072 340.735L93.505 340.265C90.1845 339.744 86.826 341.023 84.6755 343.626L82.6701 346.053C79.3176 350.111 73.3308 350.701 69.2961 347.371L66.8825 345.378C64.2944 343.242 60.7626 342.643 57.5971 343.802L54.7352 344.85C49.8558 346.638 44.4698 344.185 42.6344 339.341L41.3296 335.896C40.1674 332.828 37.5012 330.589 34.279 329.973L30.8532 329.319C25.8797 328.369 22.5507 323.673 23.289 318.648L23.8907 314.554C24.3577 311.375 23.1931 308.185 20.7937 306.07L17.7772 303.412C14.0274 300.107 13.5041 294.439 16.5814 290.461L19.057 287.262C21.0262 284.717 21.586 281.357 20.5457 278.327L19.2055 274.423C17.5609 269.633 19.9704 264.371 24.6804 262.468L27.9248 261.157C30.9763 259.923 33.1845 257.203 33.7644 253.964L34.4153 250.327C35.331 245.211 40.1711 241.752 45.2897 242.554L48.2918 243.025C51.6124 243.545 54.9708 242.267 57.1213 239.664L59.1268 237.236Z" fill="#1C7FF6"/>
</g>
<path d="M53.5389 292.633C53.1067 292.23 52.8626 291.726 52.8065 291.119C52.7505 290.513 52.8979 289.97 53.2487 289.49L58.6574 282.725L56.143 280.581L55.5635 281.305C55.1771 281.788 54.6904 282.059 54.1031 282.117C53.5159 282.175 52.9884 282.004 52.5206 281.605C52.0884 281.203 51.8443 280.698 51.7883 280.091C51.7323 279.485 51.8814 278.96 52.2355 278.517L56.0989 273.686C56.4852 273.202 56.972 272.932 57.5592 272.874C58.1464 272.816 58.6739 272.987 59.1417 273.386C59.6061 273.748 59.8672 274.242 59.9249 274.867C59.9826 275.491 59.8166 276.027 59.4269 276.474L58.8473 277.198L61.3618 279.343L66.7705 272.579C67.1568 272.095 67.6436 271.825 68.2308 271.767C68.818 271.709 69.3456 271.88 69.8134 272.279C70.2811 272.678 70.543 273.181 70.5991 273.787C70.6551 274.394 70.4899 274.939 70.1036 275.422L68.7946 276.997L72.42 280.09L66.9579 286.86C66.6071 287.339 66.4598 287.882 66.5158 288.489C66.5718 289.096 66.8159 289.6 67.2481 290.003C67.7159 290.402 68.2434 290.572 68.8306 290.514C69.4178 290.457 69.9046 290.186 70.2909 289.703L75.6946 282.883L79.2565 285.871L73.7994 292.696C73.4131 293.179 73.2479 293.724 73.3039 294.33C73.3599 294.937 73.6218 295.439 74.0896 295.839C74.5184 296.204 75.0256 296.349 75.6111 296.273C76.1967 296.197 76.6843 295.935 77.074 295.489L82.4777 288.669L86.0446 291.712C86.9412 292.477 87.4464 293.475 87.5601 294.706C87.6738 295.938 87.3604 297.017 86.6199 297.943L85.2728 299.689L94.3313 307.365C94.7212 307.698 94.8475 308.093 94.7102 308.552C94.573 309.011 94.2553 309.264 93.7571 309.313L91.5683 309.529C91.1413 309.571 90.7146 309.52 90.2884 309.377C89.8621 309.233 89.4931 309.029 89.1812 308.763L82.5151 303.076L81.168 304.823C80.4275 305.749 79.4612 306.27 78.2689 306.388C77.0767 306.505 76.0323 306.182 75.1357 305.417L57.8856 290.702L56.5817 292.333C56.192 292.779 55.7035 293.032 55.1163 293.089C54.5291 293.147 54.0033 292.995 53.5389 292.633Z" fill="white"/>
<path d="M214.921 118.287C214.921 103.769 203.121 92 188.565 92C174.01 92 162.21 103.769 162.21 118.287V154.172C162.21 168.69 174.01 180.459 188.565 180.459C203.121 180.459 214.921 168.69 214.921 154.172V118.287Z" fill="white"/>
<path d="M296.676 118.286C296.676 103.768 284.876 91.999 270.321 91.999C255.765 91.999 243.966 103.768 243.966 118.286V154.171C243.966 168.689 255.765 180.458 270.321 180.458C284.876 180.458 296.676 168.689 296.676 154.171V118.286Z" fill="white"/>
<path d="M207.187 120.694C207.187 110.435 198.85 102.118 188.564 102.118C178.279 102.118 169.941 110.435 169.941 120.694V146.057C169.941 156.316 178.279 164.633 188.564 164.633C198.85 164.633 207.187 156.316 207.187 146.057V120.694Z" fill="#E9ECF2"/>
<path d="M288.943 120.694C288.943 110.435 280.606 102.118 270.321 102.118C260.035 102.118 251.698 110.435 251.698 120.694V146.057C251.698 156.316 260.035 164.633 270.321 164.633C280.606 164.633 288.943 156.316 288.943 146.057V120.694Z" fill="#E9ECF2"/>
<path d="M217.325 104.888H241.573C271.992 104.888 296.687 129.514 296.687 159.848V331.296H162.21V159.848C162.21 129.514 186.906 104.888 217.325 104.888Z" fill="white"/>
<path d="M237.43 162.952C237.43 165.671 233.642 169.158 229.531 169.158C225.421 169.158 222.091 165.671 222.091 162.952C222.091 160.233 225.421 158.022 229.531 158.022C233.642 158.022 237.43 160.223 237.43 162.952Z" fill="black"/>
<path d="M232.934 161.167C232.788 161.354 232.643 161.562 232.612 161.79C232.58 162.06 232.705 162.33 232.82 162.579C233.35 163.648 233.912 164.768 234.88 165.464C236.327 166.512 238.481 166.335 239.865 165.194C240 165.08 240.125 164.955 240.198 164.799C240.281 164.582 240.229 164.333 240.229 164.094C240.219 163.43 240.594 162.817 240.656 162.164C240.812 160.493 239.189 158.718 237.628 158.459C235.806 158.147 234.006 159.818 232.934 161.167Z" fill="black"/>
<path d="M237.317 157.649C237.275 157.483 237.223 157.306 237.108 157.182C236.973 157.037 236.765 156.995 236.567 156.943C235.724 156.756 234.84 156.58 234.007 156.808C232.758 157.151 231.895 158.448 231.926 159.735C231.926 159.859 231.936 159.994 231.999 160.098C232.082 160.243 232.248 160.326 232.384 160.43C232.758 160.721 232.946 161.208 233.289 161.54C234.163 162.381 235.901 162.256 236.755 161.499C237.754 160.606 237.608 158.842 237.327 157.638L237.317 157.649Z" fill="black"/>
<path d="M227.878 156.112C227.68 156.247 227.472 156.393 227.368 156.6C227.243 156.849 227.274 157.15 227.316 157.42C227.472 158.613 227.639 159.869 228.336 160.855C229.377 162.339 231.5 162.868 233.185 162.225C233.352 162.163 233.518 162.09 233.633 161.955C233.789 161.768 233.82 161.519 233.893 161.291C234.101 160.658 234.663 160.191 234.934 159.579C235.641 158.032 234.663 155.801 233.258 155.043C231.614 154.151 229.345 155.158 227.878 156.102V156.112Z" fill="black"/>
<path d="M226.971 154.4C226.742 154.359 226.492 154.328 226.273 154.411C226.013 154.504 225.836 154.743 225.68 154.971C224.983 155.936 224.265 156.953 224.109 158.136C223.869 159.9 225.035 161.706 226.69 162.37C226.846 162.432 227.023 162.495 227.189 162.474C227.429 162.443 227.616 162.287 227.824 162.173C228.407 161.851 229.114 161.893 229.728 161.633C231.279 160.99 232.07 158.728 231.57 157.244C230.988 155.5 228.677 154.712 226.981 154.411L226.971 154.4Z" fill="black"/>
<path d="M227.524 156.548C227.441 156.32 227.337 156.092 227.15 155.936C226.931 155.76 226.64 155.729 226.359 155.697C225.151 155.583 223.892 155.479 222.768 155.936C221.093 156.621 220.104 158.572 220.364 160.357C220.385 160.533 220.427 160.71 220.531 160.855C220.677 161.052 220.916 161.135 221.124 161.26C221.696 161.602 222.029 162.246 222.571 162.65C223.934 163.678 226.327 163.211 227.379 162.017C228.617 160.616 228.128 158.188 227.524 156.548Z" fill="black"/>
<path d="M225.89 158.106C225.744 157.836 225.567 157.556 225.297 157.4C224.984 157.214 224.599 157.234 224.235 157.245C222.664 157.328 221.03 157.431 219.677 158.231C217.658 159.434 216.763 162.112 217.439 164.364C217.502 164.582 217.585 164.8 217.752 164.966C217.97 165.184 218.303 165.246 218.595 165.37C219.396 165.702 219.947 166.46 220.707 166.875C222.643 167.934 225.63 166.875 226.753 165.152C228.065 163.118 226.982 160.088 225.89 158.106Z" fill="black"/>
<path d="M219.114 163.793C218.927 163.98 218.739 164.187 218.677 164.447C218.604 164.748 218.708 165.059 218.812 165.349C219.26 166.605 219.749 167.923 220.727 168.826C222.205 170.175 224.619 170.258 226.295 169.168C226.461 169.065 226.617 168.94 226.711 168.774C226.836 168.535 226.815 168.255 226.836 167.996C226.909 167.259 227.408 166.626 227.564 165.899C227.96 164.063 226.378 161.883 224.682 161.385C222.694 160.804 220.477 162.423 219.114 163.793Z" fill="black"/>
<path d="M223.028 164.737C222.799 164.83 222.57 164.934 222.424 165.131C222.258 165.359 222.226 165.65 222.216 165.93C222.143 167.144 222.07 168.41 222.57 169.521C223.319 171.181 225.307 172.105 227.107 171.793C227.284 171.762 227.461 171.721 227.596 171.607C227.784 171.451 227.867 171.212 227.981 170.994C228.304 170.403 228.949 170.05 229.334 169.5C230.323 168.099 229.782 165.722 228.543 164.705C227.086 163.512 224.662 164.083 223.028 164.737Z" fill="black"/>
<path d="M224.777 168.867C224.663 169.106 224.559 169.355 224.579 169.614C224.611 169.915 224.808 170.174 224.996 170.403C225.818 171.42 226.702 172.478 227.91 172.997C229.72 173.775 231.979 173.059 233.175 171.503C233.29 171.347 233.404 171.191 233.436 170.994C233.477 170.735 233.363 170.486 233.3 170.226C233.123 169.521 233.383 168.773 233.29 168.057C233.061 166.221 230.875 164.726 229.148 164.82C227.119 164.934 225.599 167.155 224.777 168.856V168.867Z" fill="black"/>
<path d="M233.913 165.058C233.788 164.934 233.653 164.809 233.476 164.768C233.278 164.716 233.07 164.788 232.872 164.861C232.04 165.162 231.165 165.484 230.572 166.127C229.677 167.103 229.625 168.701 230.354 169.801C230.426 169.904 230.51 170.019 230.614 170.071C230.77 170.154 230.957 170.133 231.134 170.154C231.623 170.205 232.04 170.527 232.518 170.631C233.736 170.89 235.182 169.842 235.505 168.721C235.89 167.414 234.808 165.951 233.902 165.058H233.913Z" fill="black"/>
<path d="M232.061 165.099C231.936 165.265 231.811 165.442 231.78 165.649C231.749 165.888 231.863 166.127 231.967 166.345C232.436 167.279 232.946 168.254 233.799 168.866C235.079 169.78 236.973 169.603 238.17 168.597C238.284 168.503 238.399 168.389 238.461 168.244C238.534 168.047 238.493 167.829 238.482 167.621C238.472 167.04 238.794 166.5 238.846 165.919C238.971 164.446 237.535 162.899 236.161 162.681C234.559 162.422 232.987 163.896 232.061 165.099Z" fill="black"/>
<path d="M234.923 160.243C234.725 160.316 234.528 160.399 234.392 160.565C234.236 160.752 234.205 161.011 234.184 161.25C234.08 162.298 233.986 163.398 234.392 164.374C234.996 165.827 236.692 166.688 238.253 166.47C238.409 166.449 238.565 166.418 238.68 166.325C238.846 166.2 238.93 165.993 239.034 165.806C239.336 165.308 239.897 165.017 240.251 164.55C241.146 163.367 240.751 161.281 239.7 160.368C238.472 159.289 236.349 159.714 234.923 160.233V160.243Z" fill="black"/>
<path d="M195.351 171.894C203.251 187.539 223.777 192.173 239.594 188.066C250.079 185.339 264.756 175.744 264.496 163.318C264.431 159.986 259.227 160.226 259.3 163.57C259.503 173.484 245.958 181.067 238.001 183.126C224.238 186.683 206.568 182.677 199.736 169.121C198.229 166.136 193.849 168.931 195.339 171.902L195.351 171.894Z" fill="black"/>
<path d="M211.351 140.256H211.341C209.214 140.256 207.49 141.975 207.49 144.096V148.952C207.49 151.073 209.214 152.792 211.341 152.792H211.351C213.478 152.792 215.202 151.073 215.202 148.952V144.096C215.202 141.975 213.478 140.256 211.351 140.256Z" fill="black"/>
<path d="M242.301 140.256H242.29C240.164 140.256 238.44 141.975 238.44 144.096V148.952C238.44 151.073 240.164 152.792 242.29 152.792H242.301C244.427 152.792 246.151 151.073 246.151 148.952V144.096C246.151 141.975 244.427 140.256 242.301 140.256Z" fill="black"/>
<path d="M162.468 218.315C162.468 218.315 167.238 241.173 133.774 296.227C100.31 351.28 106.77 431.746 106.77 431.746H296.469V280.497L162.478 218.315H162.468Z" fill="white"/>
<path d="M57.4146 138.679L55.1187 140.276C53.9402 141.096 53.6513 142.713 54.4734 143.889L109.216 222.141C110.039 223.316 111.66 223.604 112.839 222.784L115.135 221.187C116.313 220.367 116.602 218.75 115.78 217.575L61.037 139.323C60.2149 138.147 58.5931 137.859 57.4146 138.679Z" fill="#3D3F4D"/>
<path d="M116.247 208.077L100.124 219.293C98.6348 220.329 98.2696 222.373 99.3088 223.858L116.195 247.996C117.234 249.482 119.284 249.846 120.774 248.81L136.897 237.594C138.386 236.557 138.751 234.513 137.712 233.028L120.826 208.89C119.787 207.405 117.737 207.04 116.247 208.077Z" fill="#69AFEE"/>
<path d="M245.722 393.16L229.599 404.376C228.11 405.412 227.745 407.456 228.784 408.942L258.001 450.706C259.04 452.191 261.09 452.556 262.58 451.519L278.703 440.303C280.192 439.267 280.558 437.223 279.518 435.738L250.301 393.973C249.262 392.488 247.212 392.124 245.722 393.16Z" fill="#3B80D3"/>
<path d="M135.567 216.572L101.452 240.304C99.9627 241.341 99.5975 243.385 100.637 244.87L117.523 269.008C118.562 270.493 120.612 270.858 122.101 269.821L156.217 246.089C157.706 245.053 158.071 243.009 157.032 241.523L140.146 217.385C139.107 215.9 137.057 215.536 135.567 216.572Z" fill="#3B80D3"/>
<path d="M112.922 262.718L152.687 235.055C159.217 230.513 168.206 232.117 172.755 238.62L269.809 377.353L206.401 421.462L109.347 282.729C104.792 276.218 106.401 267.254 112.922 262.718Z" fill="#E1F4FF"/>
<path d="M267.829 368.152L198.43 416.43C196.94 417.467 196.575 419.511 197.614 420.996L206.546 433.763C207.585 435.248 209.635 435.613 211.124 434.576L280.524 386.298C282.013 385.262 282.378 383.218 281.339 381.733L272.408 368.966C271.369 367.48 269.319 367.116 267.829 368.152Z" fill="#6DB2F8"/>
<path d="M297.081 409.992L227.681 458.27C226.192 459.306 225.827 461.351 226.866 462.836L235.797 475.603C236.836 477.088 238.886 477.452 240.376 476.416L309.775 428.138C311.265 427.102 311.63 425.058 310.591 423.572L301.659 410.806C300.62 409.32 298.57 408.956 297.081 409.992Z" fill="#6DB2F8"/>
<path d="M182.34 252.323L186.918 258.868L161.654 276.443C160.476 277.263 158.854 276.975 158.032 275.8L156.43 273.51C155.609 272.336 155.898 270.718 157.076 269.898L182.34 252.323Z" fill="#AAC5E2"/>
<path d="M248.294 346.626L252.872 353.171L227.608 370.746C226.431 371.566 224.808 371.277 223.986 370.103L222.384 367.813C221.563 366.639 221.852 365.02 223.03 364.201L248.294 346.626Z" fill="#AAC5E2"/>
<path d="M215.317 299.463L219.896 306.008L183.946 331.017C182.768 331.836 181.145 331.548 180.324 330.373L178.722 328.084C177.9 326.909 178.189 325.291 179.367 324.472L215.317 299.463Z" fill="#AAC5E2"/>
<path d="M198.828 275.899L203.406 282.445L185.841 294.664C184.663 295.483 183.04 295.195 182.219 294.021L180.617 291.731C179.795 290.556 180.084 288.938 181.262 288.119L198.828 275.899Z" fill="#AAC5E2"/>
<path d="M231.809 323.049L236.387 329.594L218.822 341.813C217.644 342.633 216.021 342.344 215.2 341.17L213.598 338.88C212.776 337.706 213.065 336.088 214.243 335.268L231.809 323.049Z" fill="#AAC5E2"/>
<path d="M101.153 380.81C101.153 380.81 49.4521 346.678 119.355 279.867C189.257 213.055 202.37 294.395 174.698 320.536C147.026 346.678 136.099 404.045 136.099 404.045L101.143 380.81H101.153Z" fill="white"/>
<path d="M318.498 306.162C318.498 306.162 351.946 351.129 271.761 386.475C191.577 421.821 205.595 348.555 237.242 334.825C268.889 321.085 295.947 275.621 295.947 275.621L318.509 306.162H318.498Z" fill="white"/>
<g filter="url(#filter3_b_4695_7554)">
<path d="M343.986 229.243C349.129 227.285 354.929 229.933 356.99 235.179L358.261 238.416C359.582 241.78 362.53 244.219 366.026 244.841L369.321 245.427C374.732 246.389 378.464 251.565 377.722 257.076L377.206 260.903C376.734 264.406 378.078 267.938 380.759 270.243L383.579 272.667C387.732 276.236 388.437 282.458 385.179 286.778L382.686 290.083C380.616 292.827 380.076 296.476 381.251 299.769L382.642 303.668C384.478 308.813 382.063 314.457 377.143 316.518L373.415 318.08C370.266 319.399 368.017 322.268 367.446 325.696L366.758 329.825C365.858 335.222 360.929 338.872 355.578 338.103L351.944 337.58C348.489 337.084 345.055 338.435 342.865 341.154L340.473 344.123C337.026 348.4 330.808 349.034 326.477 345.548L323.84 343.426C321.041 341.174 317.31 340.564 314.012 341.819L310.839 343.027C305.696 344.985 299.896 342.337 297.836 337.091L296.565 333.854C295.244 330.49 292.295 328.051 288.799 327.429L285.504 326.843C280.093 325.881 276.361 320.705 277.104 315.194L277.619 311.367C278.091 307.864 276.748 304.332 274.066 302.027L271.246 299.603C267.093 296.034 266.388 289.812 269.647 285.492L272.14 282.187C274.209 279.443 274.75 275.794 273.574 272.501L272.183 268.602C270.347 263.457 272.762 257.813 277.682 255.752L281.41 254.19C284.559 252.871 286.808 250.002 287.379 246.574L288.067 242.445C288.967 237.048 293.896 233.398 299.248 234.167L302.882 234.69C306.337 235.186 309.77 233.835 311.96 231.116L314.353 228.147C317.799 223.87 324.017 223.236 328.348 226.722L330.986 228.844C333.784 231.096 337.515 231.706 340.813 230.451L343.986 229.243Z" fill="#90C9F6" fill-opacity="0.4"/>
<path d="M334.775 289.77C333.766 292.127 329.223 293.667 325.696 292.057C322.169 290.447 320.606 286.119 321.615 283.761C322.623 281.404 326.301 280.792 329.828 282.402C333.354 284.012 335.788 287.403 334.775 289.77Z" fill="white"/>
<path d="M331.582 286.461C331.388 286.566 331.186 286.689 331.074 286.874C330.948 287.096 330.955 287.379 330.96 287.64C331.019 288.774 331.085 289.966 331.658 290.948C332.51 292.424 334.424 293.114 336.035 292.667C336.193 292.621 336.346 292.562 336.467 292.455C336.619 292.299 336.667 292.063 336.755 291.856C336.993 291.276 337.541 290.892 337.838 290.349C338.591 288.962 337.857 286.787 336.614 285.951C335.167 284.967 333.002 285.711 331.582 286.461Z" fill="white"/>
<path d="M336.646 285.127C336.672 284.966 336.693 284.793 336.641 284.64C336.579 284.461 336.415 284.344 336.265 284.221C335.611 283.729 334.918 283.23 334.119 283.102C332.92 282.909 331.698 283.696 331.247 284.824C331.201 284.932 331.16 285.053 331.175 285.167C331.192 285.326 331.304 285.463 331.382 285.606C331.596 286.005 331.575 286.501 331.747 286.924C332.185 287.995 333.722 288.567 334.735 288.245C335.924 287.862 336.453 286.276 336.659 285.122L336.646 285.127Z" fill="white"/>
<path d="M329.118 280.098C328.899 280.138 328.666 280.182 328.5 280.321C328.3 280.488 328.216 280.762 328.151 281.012C327.842 282.108 327.519 283.262 327.752 284.39C328.094 286.084 329.719 287.375 331.404 287.477C331.57 287.488 331.74 287.49 331.888 287.418C332.091 287.317 332.211 287.114 332.358 286.944C332.771 286.477 333.427 286.292 333.886 285.867C335.067 284.804 335.055 282.486 334.131 281.279C333.052 279.861 330.732 279.845 329.122 280.089L329.118 280.098Z" fill="white"/>
<path d="M328.976 278.258C328.795 278.133 328.592 278.008 328.374 277.994C328.116 277.973 327.875 278.111 327.657 278.248C326.7 278.811 325.707 279.412 325.134 280.377C324.274 281.813 324.604 283.835 325.777 285.059C325.888 285.174 326.017 285.297 326.167 285.344C326.384 285.411 326.603 285.35 326.824 285.332C327.443 285.281 328.035 285.595 328.658 285.61C330.227 285.66 331.745 284.008 331.867 282.525C332.014 280.785 330.324 279.197 328.981 278.271L328.976 278.258Z" fill="white"/>
<path d="M328.652 280.338C328.665 280.107 328.661 279.868 328.558 279.66C328.436 279.421 328.197 279.28 327.968 279.143C326.975 278.571 325.933 277.988 324.799 277.944C323.107 277.881 321.535 279.186 321.096 280.836C321.049 280.997 321.019 281.166 321.054 281.333C321.106 281.561 321.281 281.726 321.413 281.916C321.777 282.437 321.824 283.125 322.138 283.688C322.927 285.113 325.153 285.646 326.498 285.023C328.08 284.293 328.562 281.996 328.652 280.338Z" fill="white"/>
<path d="M326.673 281.047C326.648 280.756 326.6 280.444 326.426 280.203C326.227 279.919 325.889 279.786 325.573 279.652C324.194 279.109 322.754 278.559 321.297 278.722C319.118 278.975 317.356 280.946 317.101 283.163C317.074 283.377 317.065 283.598 317.146 283.807C317.252 284.082 317.515 284.266 317.719 284.488C318.283 285.09 318.475 285.963 318.973 286.621C320.241 288.297 323.196 288.549 324.8 287.495C326.679 286.245 326.875 283.194 326.673 281.047Z" fill="white"/>
<path d="M318.749 283.325C318.519 283.413 318.281 283.52 318.132 283.721C317.957 283.953 317.931 284.264 317.913 284.556C317.831 285.82 317.761 287.155 318.266 288.321C319.033 290.069 321.074 291.087 322.915 290.798C323.097 290.774 323.277 290.727 323.419 290.62C323.615 290.461 323.701 290.21 323.815 289.994C324.151 289.383 324.814 289.03 325.218 288.461C326.238 287.023 325.69 284.514 324.419 283.418C322.93 282.136 320.427 282.671 318.749 283.325Z" fill="white"/>
<path d="M321.758 285.676C321.527 285.667 321.292 285.667 321.094 285.781C320.867 285.914 320.732 286.154 320.619 286.393C320.106 287.417 319.574 288.486 319.59 289.644C319.617 291.378 320.98 292.957 322.64 293.392C322.803 293.435 322.97 293.468 323.129 293.422C323.347 293.36 323.507 293.186 323.686 293.042C324.183 292.655 324.867 292.602 325.402 292.276C326.77 291.448 327.187 289.176 326.502 287.809C325.695 286.204 323.403 285.749 321.758 285.676Z" fill="white"/>
<path d="M321.724 289.942C321.537 290.104 321.356 290.279 321.277 290.512C321.192 290.786 321.266 291.088 321.342 291.359C321.67 292.563 322.036 293.827 322.879 294.75C324.144 296.134 326.347 296.398 327.951 295.517C328.107 295.427 328.263 295.337 328.363 295.178C328.495 294.969 328.489 294.708 328.532 294.459C328.642 293.778 329.143 293.232 329.328 292.574C329.813 290.892 328.493 288.74 326.976 288.145C325.192 287.449 323.065 288.779 321.728 289.933L321.724 289.942Z" fill="white"/>
<path d="M330.977 290.219C330.916 290.062 330.846 289.901 330.71 289.796C330.56 289.673 330.354 289.655 330.157 289.64C329.332 289.575 328.462 289.512 327.714 289.837C326.585 290.333 325.947 291.698 326.164 292.937C326.188 293.056 326.217 293.187 326.287 293.273C326.39 293.406 326.559 293.461 326.703 293.549C327.103 293.785 327.341 294.227 327.713 294.505C328.661 295.207 330.291 294.864 330.984 294.019C331.8 293.036 331.414 291.343 330.968 290.215L330.977 290.219Z" fill="white"/>
<path d="M329.372 289.529C329.203 289.624 329.031 289.728 328.927 289.896C328.812 290.09 328.821 290.342 328.83 290.572C328.885 291.565 328.961 292.611 329.465 293.476C330.225 294.769 331.915 295.358 333.316 294.954C333.448 294.918 333.589 294.863 333.697 294.762C333.832 294.619 333.877 294.414 333.945 294.23C334.152 293.722 334.629 293.381 334.889 292.897C335.543 291.668 334.885 289.765 333.787 289.038C332.508 288.185 330.613 288.848 329.372 289.529Z" fill="white"/>
<path d="M333.63 286.439C333.434 286.425 333.233 286.42 333.056 286.511C332.852 286.611 332.729 286.824 332.623 287.023C332.145 287.891 331.656 288.808 331.643 289.813C331.621 291.309 332.757 292.72 334.177 293.143C334.319 293.186 334.464 293.22 334.597 293.184C334.786 293.141 334.935 292.994 335.093 292.873C335.537 292.559 336.127 292.527 336.604 292.261C337.811 291.585 338.245 289.622 337.682 288.418C337.029 287.002 335.05 286.539 333.634 286.43L333.63 286.439Z" fill="white"/>
<path d="M295.657 281.179C296.63 297.839 312.521 309.896 327.615 312.53C337.622 314.272 353.774 311.701 358.162 300.825C359.342 297.911 354.788 296.08 353.61 299.009C350.105 307.684 335.672 308.954 328.081 307.623C314.953 305.316 301.279 294.922 300.448 280.492C300.262 277.313 295.467 278.022 295.643 281.181L295.657 281.179Z" fill="white"/>
<path d="M322.832 260.793L322.823 260.789C320.999 259.956 318.882 260.772 318.095 262.611L316.293 266.822C315.506 268.66 316.347 270.826 318.172 271.659L318.181 271.663C320.005 272.496 322.122 271.681 322.909 269.842L324.711 265.631C325.498 263.792 324.657 261.626 322.832 260.793Z" fill="white"/>
<path d="M349.387 272.917L349.378 272.912C347.554 272.08 345.437 272.895 344.65 274.734L342.848 278.945C342.061 280.784 342.902 282.949 344.727 283.782L344.736 283.786C346.56 284.619 348.677 283.804 349.464 281.965L351.266 277.754C352.053 275.915 351.211 273.749 349.387 272.917Z" fill="white"/>
</g>
</g>
<defs>
<filter id="filter0_b_4695_7554" x="182.741" y="-86.7285" width="296.236" height="301.824" filterUnits="userSpaceOnUse" color-interpolation-filters="sRGB">
<feFlood flood-opacity="0" result="BackgroundImageFix"/>
<feGaussianBlur in="BackgroundImageFix" stdDeviation="42.5"/>
<feComposite in2="SourceAlpha" operator="in" result="effect1_backgroundBlur_4695_7554"/>
<feBlend mode="normal" in="SourceGraphic" in2="effect1_backgroundBlur_4695_7554" result="shape"/>
</filter>
<filter id="filter1_b_4695_7554" x="-23.5278" y="-44.5273" width="292.753" height="299.613" filterUnits="userSpaceOnUse" color-interpolation-filters="sRGB">
<feFlood flood-opacity="0" result="BackgroundImageFix"/>
<feGaussianBlur in="BackgroundImageFix" stdDeviation="42.5"/>
<feComposite in2="SourceAlpha" operator="in" result="effect1_backgroundBlur_4695_7554"/>
<feBlend mode="normal" in="SourceGraphic" in2="effect1_backgroundBlur_4695_7554" result="shape"/>
</filter>
<filter id="filter2_b_4695_7554" x="-63.9951" y="155.187" width="269.787" height="272.915" filterUnits="userSpaceOnUse" color-interpolation-filters="sRGB">
<feFlood flood-opacity="0" result="BackgroundImageFix"/>
<feGaussianBlur in="BackgroundImageFix" stdDeviation="39.2868"/>
<feComposite in2="SourceAlpha" operator="in" result="effect1_backgroundBlur_4695_7554"/>
<feBlend mode="normal" in="SourceGraphic" in2="effect1_backgroundBlur_4695_7554" result="shape"/>
</filter>
<filter id="filter3_b_4695_7554" x="179.472" y="139.473" width="292.753" height="299.613" filterUnits="userSpaceOnUse" color-interpolation-filters="sRGB">
<feFlood flood-opacity="0" result="BackgroundImageFix"/>
<feGaussianBlur in="BackgroundImageFix" stdDeviation="42.5"/>
<feComposite in2="SourceAlpha" operator="in" result="effect1_backgroundBlur_4695_7554"/>
<feBlend mode="normal" in="SourceGraphic" in2="effect1_backgroundBlur_4695_7554" result="shape"/>
</filter>
<clipPath id="clip0_4695_7554">
<rect x="20" y="10" width="353" height="400" rx="14" fill="white"/>
</clipPath>
</defs>
</svg>
